:SAMPLES-PER-SECOND 30
:FULLY-SPECIFIED
:DEGREES
530
root  5.17423 20.3233 -53.3035 -166.86 -11.5961 162.609
RightUpLeg  -19.6885 -18.8122 -9.06755
RightLeg  118.072 21.0783 -9.44749
RightFoot  -0.643779 0.368622 -3.40004
RightToes  -5.82073e-011 -3.18055e-015 -2.98177e-016
Spine  30.1707 4.0892 -2.70281
Spine1  -2.93319 2.68841 -13.1254
HEad  -22.8489 -16.816 8.75217
LeftShoulder1  -3.88251e-019 9.70628e-020 -3.87848e-018
LeftArm  -15.0779 56.2626 -60.7231
LeftForeArm  8.55226 -12.4027 -3.80822
LeftHand  0.181778 -2.52379 -2.71226
RightShoulder  7.49722 10.8436 34.6892
RightArm  14.5993 -54.5993 -4.60138
RightForeArm  7.47409 9.74563 -5.48805
RightHand  -3.40618 5.17592 -35.9677
LeftUpLeg  -87.829 -6.99024 -25.1127
LeftLeg  106.075 -18.9445 15.8483
LeftFoot  -30.6368 -0.115401 -0.209485
LeftToes  -2.27483e-011 -5.53417e-011 9.36564e-012
531
root  4.93259 20.6703 -53.6232 -167.622 -12.4225 162.824
RightUpLeg  -16.4009 -19.6804 -10.0349
RightLeg  115.238 21.059 -10.4241
RightFoot  -1.87289 0.185294 -1.84771
RightToes  -5.82073e-011 -3.18055e-015 -2.98177e-016
Spine  28.7841 4.43972 -5.88153
Spine1  -3.0681 1.61462 -8.58368
HEad  -21.0716 -15.0913 7.82243
LeftShoulder1  -3.88251e-019 9.70628e-020 -3.87848e-018
LeftArm  -14.5968 57.7473 -61.0378
LeftForeArm  9.24814 -13.5489 -3.78055
LeftHand  -0.00450465 -3.80904 0.251818
RightShoulder  7.09486 10.7542 32.8516
RightArm  23.0589 -57.7311 -12.128
RightForeArm  8.85207 13.4804 -5.94793
RightHand  -4.4682 4.94662 -47.2949
LeftUpLeg  -85.2876 -8.16206 -25.0551
LeftLeg  105.086 -18.95 16.6147
LeftFoot  -30.5873 -0.129142 -0.303109
LeftToes  -2.27483e-011 -5.53417e-011 9.36564e-012
532
root  4.66041 21.1067 -53.9842 -168.413 -12.5493 163.825
RightUpLeg  -12.8078 -19.4318 -10.2263
RightLeg  112.122 20.5365 -10.6758
RightFoot  -4.70191 -0.00568248 0.212532
RightToes  -5.82073e-011 -3.18055e-015 -2.98177e-016
Spine  27.3835 4.48013 -7.22691
Spine1  -3.81549 1.02949 -6.11467
HEad  -19.123 -13.7985 6.814
LeftShoulder1  -3.88251e-019 9.70628e-020 -3.87848e-018
LeftArm  -12.6641 58.3027 -59.7682
LeftForeArm  10.6919 -14.3892 -4.01184
LeftHand  -0.185287 -4.80704 2.46333
RightShoulder  6.8744 10.6989 31.8392
RightArm  28.2541 -59.2982 -17.5765
RightForeArm  6.06715 14.2848 -5.84985
RightHand  -4.28204 4.42957 -47.3242
LeftUpLeg  -82.7077 -7.95705 -24.8653
LeftLeg  104.213 -18.98 17.4106
LeftFoot  -31.6163 -0.0443735 0.251284
LeftToes  -2.27483e-011 -5.53417e-011 9.36564e-012
533
root  4.35887 21.5953 -54.289 -168.842 -11.7357 165.064
RightUpLeg  -10.2282 -17.9207 -9.9542
RightLeg  109.306 19.7038 -10.0837
RightFoot  -7.91945 -0.0644211 1.78145
RightToes  -5.82073e-011 -3.18055e-015 -2.98177e-016
Spine  26.6621 4.34177 -6.96724
Spine1  -5.76735 0.925337 -6.00789
HEad  -18.6646 -12.8165 5.94964
LeftShoulder1  -3.88251e-019 9.70628e-020 -3.87848e-018
LeftArm  -10.3946 57.9169 -57.8146
LeftForeArm  11.5585 -15.1559 -4.25086
LeftHand  -0.237158 -4.63346 3.10218
RightShoulder  6.90309 10.6495 32.0886
RightArm  24.5952 -58.6844 -17.6309
RightForeArm  0.0416586 10.7 -4.8376
RightHand  -2.56542 2.08694 -37.1455
LeftUpLeg  -80.7911 -7.0084 -24.6035
LeftLeg  103.107 -19.0361 18.5481
LeftFoot  -32.7537 -0.00570673 0.482796
LeftToes  -2.27483e-011 -5.53417e-011 9.36564e-012
534
root  4.05011 22.16 -54.4854 -168.809 -10.4188 165.901
RightUpLeg  -8.9746 -15.8357 -9.80816
RightLeg  106.723 18.9063 -9.23327
RightFoot  -10.5155 -0.0347188 2.68138
RightToes  -5.82073e-011 -3.18055e-015 -2.98177e-016
Spine  26.5234 4.16738 -6.32669
Spine1  -8.12717 0.907941 -6.87945
HEad  -20.6997 -11.6955 5.59069
LeftShoulder1  -3.88251e-019 9.70628e-020 -3.87848e-018
LeftArm  -9.77972 56.4978 -56.7316
LeftForeArm  11.1493 -15.6153 -4.19667
LeftHand  -0.290556 -4.03982 3.95804
RightShoulder  7.08459 10.6015 33.1212
RightArm  15.5588 -56.2474 -11.814
RightForeArm  -6.80567 4.10832 -5.08679
RightHand  -0.36415 -3.81738 -24.9629
LeftUpLeg  -79.365 -6.4768 -24.449
LeftLeg  101.242 -18.87 19.9388
LeftFoot  -32.9237 -0.0788675 0.0578703
LeftToes  -2.27483e-011 -5.53417e-011 9.36564e-012
535
root  3.74853 22.8331 -54.594 -168.726 -8.75598 166.451
RightUpLeg  -8.26017 -13.4598 -9.95746
RightLeg  104.039 18.139 -8.18611
RightFoot  -12.7498 0.0230745 3.76992
RightToes  -5.82073e-011 -3.18055e-015 -2.98177e-016
Spine  26.5942 4.05837 -5.518
Spine1  -9.96459 1.02102 -8.13722
HEad  -24.5287 -10.6093 5.81972
LeftShoulder1  -3.88251e-019 9.70628e-020 -3.87848e-018
LeftArm  -11.9697 53.7931 -57.2237
LeftForeArm  9.86688 -14.7974 -3.8239
LeftHand  -0.493403 -3.89889 6.62394
RightShoulder  7.26322 10.5913 34.0558
RightArm  7.08904 -53.4509 -4.35829
RightForeArm  -8.71517 -0.46241 -6.24752
RightHand  0.726607 -10.2068 -17.1822
LeftUpLeg  -77.7935 -6.28602 -24.3177
LeftLeg  98.5719 -18.4302 21.7028
LeftFoot  -32.4868 -0.182766 -0.553768
LeftToes  -2.27483e-011 -5.53417e-011 9.36564e-012
536
root  3.45165 23.6111 -54.665 -168.841 -6.60921 167.135
RightUpLeg  -7.33701 -10.7417 -10.2264
RightLeg  100.785 17.3356 -6.78024
RightFoot  -15.1016 0.135423 5.42506
RightToes  -5.82073e-011 -3.18055e-015 -2.98177e-016
Spine  26.6676 4.07559 -3.9694
Spine1  -11.2284 1.53262 -10.1191
HEad  -28.6341 -10.0145 6.37579
LeftShoulder1  -3.88251e-019 9.70628e-020 -3.87848e-018
LeftArm  -15.948 49.7989 -59.1262
LeftForeArm  7.49409 -12.2915 -3.10028
LeftHand  -0.774303 -3.80832 10.4353
RightShoulder  7.32506 10.602 34.3467
RightArm  3.17044 -51.7931 2.04575
RightForeArm  -5.4156 -0.00380861 -6.68228
RightHand  0.728376 -11.5824 -13.694
LeftUpLeg  -75.8761 -5.66858 -24.0031
LeftLeg  95.4926 -17.7267 23.6624
LeftFoot  -32.2218 -0.277744 -1.12884
LeftToes  -2.27483e-011 -5.53417e-011 9.36564e-012
